<svg width="45" height="49" viewBox="0 0 45 49" fill="none" xmlns="http://www.w3.org/2000/svg">
<path d="M15 14.2917C12.5136 14.2917 10.129 15.3672 8.37087 17.2817C6.61272 19.1961 5.625 21.7926 5.625 24.5C5.625 27.2075 6.61272 29.804 8.37087 31.7184C10.129 33.6329 12.5136 34.7084 15 34.7084H30C32.4864 34.7084 34.871 33.6329 36.6291 31.7184C38.3873 29.804 39.375 27.2075 39.375 24.5C39.375 21.7926 38.3873 19.1961 36.6291 17.2817C34.871 15.3672 32.4864 14.2917 30 14.2917H15ZM15 10.2084H30C31.7236 10.2084 33.4303 10.578 35.0227 11.2963C36.6151 12.0145 38.062 13.0672 39.2808 14.3943C40.4995 15.7214 41.4663 17.2969 42.1259 19.0309C42.7855 20.7648 43.125 22.6232 43.125 24.5C43.125 26.3769 42.7855 28.2353 42.1259 29.9692C41.4663 31.7032 40.4995 33.2787 39.2808 34.6058C38.062 35.9329 36.6151 36.9856 35.0227 37.7038C33.4303 38.422 31.7236 38.7917 30 38.7917H15C13.2764 38.7917 11.5697 38.422 9.97728 37.7038C8.38488 36.9856 6.93799 35.9329 5.71922 34.6058C4.50045 33.2787 3.53367 31.7032 2.87408 29.9692C2.21449 28.2353 1.875 26.3769 1.875 24.5C1.875 22.6232 2.21449 20.7648 2.87408 19.0309C3.53367 17.2969 4.50045 15.7214 5.71922 14.3943C6.93799 13.0672 8.38488 12.0145 9.97728 11.2963C11.5697 10.578 13.2764 10.2084 15 10.2084ZM15 30.625C13.5082 30.625 12.0774 29.9797 11.0225 28.8311C9.96763 27.6824 9.375 26.1245 9.375 24.5C9.375 22.8756 9.96763 21.3177 11.0225 20.169C12.0774 19.0204 13.5082 18.375 15 18.375C16.4918 18.375 17.9226 19.0204 18.9775 20.169C20.0324 21.3177 20.625 22.8756 20.625 24.5C20.625 26.1245 20.0324 27.6824 18.9775 28.8311C17.9226 29.9797 16.4918 30.625 15 30.625Z" fill="white"/>
</svg>
